<svg xmlns="http://www.w3.org/2000/svg" width="50" height="50" viewBox="0 0 50 50">
  <g id="Icon" style="isolation: isolate">
    <path id="Path_6" data-name="Path 6" d="M0,0H50V50H0Z" fill="#f0db4f"/>
    <path id="Path_7" data-name="Path 7" d="M309.266,492.63c-.366-2.281-1.854-4.2-6.259-5.984-1.53-.7-3.237-1.207-3.745-2.367a2.582,2.582,0,0,1-.09-1.464c.328-1.326,1.911-1.74,3.165-1.359a3.483,3.483,0,0,1,2.034,1.887c2.158-1.4,2.153-1.388,3.66-2.348a9.325,9.325,0,0,0-1.207-1.616c-1.3-1.45-3.066-2.2-5.894-2.139-.49.062-.984.128-1.473.19a6.684,6.684,0,0,0-3.546,2.091,6.546,6.546,0,0,0,1.188,9.32c2.837,2.129,7.006,2.614,7.538,4.605.518,2.438-1.792,3.227-4.087,2.947a5.357,5.357,0,0,1-3.65-2.776c-1.873,1.084-1.873,1.084-3.8,2.191a8.451,8.451,0,0,0,1.7,2.315c3.622,3.674,12.685,3.493,14.311-2.068A6.865,6.865,0,0,0,309.266,492.63Zm-18.726-15.1h-4.677c0,4.04-.019,8.051-.019,12.091,0,2.571.133,4.929-.285,5.651-.684,1.421-2.457,1.245-3.265.97a4.014,4.014,0,0,1-1.725-1.792,2.408,2.408,0,0,0-.266-.428q-1.9,1.162-3.8,2.329a7.516,7.516,0,0,0,2.757,3.156,9.079,9.079,0,0,0,6.683.822,5.9,5.9,0,0,0,3.774-2.956c1.065-1.963.836-4.339.827-6.968C290.564,486.123,290.54,481.836,290.54,477.535Z" transform="translate(-263.358 -454.555)" fill="#323330"/>
  </g>
</svg>
